<?xml version="1.0" encoding="utf-8"?>
<svg xmlns="http://www.w3.org/2000/svg" xmlns:xlink="http://www.w3.org/1999/xlink" xml:space="preserve" version="1.1" x="0px" y="0px" viewBox="0 0 100 100" width="400px" height="400px"><g style="fill: #ffffff"><path d="M60,35C57.149,35,54.582,36.199,52.761,38.114L52.758,38.105L50,41L47.242,38.105L47.239,38.114C45.418,36.199,42.851,35,40,35C34.477,35,30,39.477,30,45C30,46.826,30.501,48.529,31.358,50L40.955,50L45,41.91L50,51.91L50.955,50L68.642,50C69.499,48.529,70,46.826,70,45C70,39.477,65.523,35,60,35Z" stroke="none"></path><path d="M54.045,55L50,63.09L45,53.09L44.045,55L35.714,55L50,70L64.286,55Z" stroke="none"></path><path d="M80,40L80,30C80,24.477,75.523,20,70,20C67.239,20,65,17.761,65,15L65,10L35,10L35,15C35,17.761,32.761,20,30,20C24.477,20,20,24.477,20,30L20,70C20,75.523,24.477,80,30,80C32.761,80,35,82.239,35,85L35,90L65,90L65,85C65,82.239,67.239,80,70,80C75.523,80,80,75.523,80,70L80,60C82.761,60,85,57.761,85,55L85,45C85,42.239,82.761,40,80,40ZM75,70C75,72.761,72.761,75,70,75L30,75C27.239,75,25,72.761,25,70L25,30C25,27.239,27.239,25,30,25L70,25C72.761,25,75,27.239,75,30L75,70Z" stroke="none"></path></g></svg>