<?xml version="1.0" encoding="UTF-8"?>
<svg width="18px" height="18px" viewBox="0 0 18 18" version="1.1" xmlns="http://www.w3.org/2000/svg" xmlns:xlink="http://www.w3.org/1999/xlink">
    <!-- Generator: Sketch 47 (45396) - http://www.bohemiancoding.com/sketch -->
    <title>Information outlined icon (1)</title>
    <desc>Created with Sketch.</desc>
    <defs></defs>
    <g id="Page-1" stroke="none" stroke-width="1" fill="none" fill-rule="evenodd">
        <g id="Class-Info" transform="translate(-36.000000, -858.000000)" fill-rule="nonzero" fill="#FFFFFF">
            <g id="Information-outlined-icon-(1)" transform="translate(36.000000, 858.000000)">
                <polygon id="Shape" fill-opacity="0.01" points="0 0 18 0 18 18 0 18"></polygon>
                <path d="M8.625,0.72 C12.97425,0.72 16.5,4.42707429 16.5,9 C16.5,13.5729257 12.97425,17.28 8.625,17.28 C4.27575,17.28 0.75,13.5729257 0.75,9 C0.75,4.42707429 4.27575,0.72 8.625,0.72 Z M8.625,1.90285714 C4.8973125,1.90285714 1.875,5.08060286 1.875,9 C1.875,12.9193971 4.8973125,16.0971429 8.625,16.0971429 C12.3526875,16.0971429 15.375,12.9193971 15.375,9 C15.375,5.08060286 12.3526875,1.90285714 8.625,1.90285714 Z M8.625,6.63428571 C8.93566017,6.63428571 9.1875,6.89907731 9.1875,7.22571429 L9.1875,12.5485714 C9.49816017,12.5485714 9.75,12.813363 9.75,13.14 C9.75,13.466637 9.49816017,13.7314286 9.1875,13.7314286 L8.0625,13.7314286 C7.75183983,13.7314286 7.5,13.466637 7.5,13.14 C7.5,12.813363 7.75183983,12.5485714 8.0625,12.5485714 L8.0625,7.81714286 C7.75183983,7.81714286 7.5,7.55235127 7.5,7.22571429 C7.5,6.89907731 7.75183983,6.63428571 8.0625,6.63428571 L8.625,6.63428571 Z M8.625,4.26857143 C8.93566017,4.26857143 9.1875,4.53336302 9.1875,4.86 C9.1875,5.18663698 8.93566017,5.45142857 8.625,5.45142857 C8.31433983,5.45142857 8.0625,5.18663698 8.0625,4.86 C8.0625,4.53336302 8.31433983,4.26857143 8.625,4.26857143 Z" id="Shape"></path>
            </g>
        </g>
    </g>
</svg>