<?xml version="1.0" encoding="utf-8"?>
<!-- Svg Vector Icons : http://www.onlinewebfonts.com/icon -->
<!DOCTYPE svg PUBLIC "-//W3C//DTD SVG 1.1//EN" "http://www.w3.org/Graphics/SVG/1.1/DTD/svg11.dtd">
<svg version="1.1" xmlns="http://www.w3.org/2000/svg" xmlns:xlink="http://www.w3.org/1999/xlink" x="0px" y="0px" viewBox="0 0 256 256" enable-background="new 0 0 256 256" xml:space="preserve">
<metadata> Svg Vector Icons : http://www.onlinewebfonts.com/icon </metadata>
<g><g><g><path fill="#000000" d="M54.7,10.3c-11.4,1.4-22.8,7.2-30.5,15.4c-4.3,4.5-6.6,8-9.3,13.6c-3.5,7.3-4.7,13.1-4.7,21.6c0,5.3,0.3,8.1,1.2,11.7c1.2,5.1,4.7,13,7.6,17.3c1,1.4,8.3,9.3,16.5,17.4l14.8,14.8l36-36l36-36l-13.8-13.8c-7.5-7.6-15.2-14.9-17-16.3c-4.4-3.4-12.9-7.4-18.5-8.7C67.5,10.2,59.6,9.7,54.7,10.3z"/><path fill="#000000" d="M190.1,10.1c-4.3,0.5-10.2,2-13.9,3.6c-9.8,4-5.8,0.3-82.6,76.9c-39.1,39-72.2,72.3-73.5,74.1c-2.8,3.7-7.1,12.5-8.3,17.1c-6.4,24,5.2,49,27.5,59.3c5.9,2.7,9.7,3.8,16.3,4.6c11.9,1.4,25.7-2.2,35.5-9.6c5.1-3.9,143.9-143,146.2-146.6c5.9-9.3,8.6-18.1,8.6-28.6c0-13.3-4.7-25.2-13.7-34.9c-6.4-6.8-16-12.4-25-14.6C202.7,10.4,193.7,9.7,190.1,10.1z M194.1,122.1l-1.9,1.9l-30.1-30.1l-30.1-30.1l1.8-1.9l1.8-1.9l30.1,30.1l30.1,30.1L194.1,122.1z M131.2,83c2,1.1,3.8,3.9,3.8,6c0,3.2-3.6,6.7-7,6.7c-3.4,0-7-3.5-7-6.7c0-3.3,3.6-7,7-7C128.7,82,130.2,82.4,131.2,83z M111.9,102.7c2,1.2,3.2,3.4,3.2,6.1c0,1.9-0.3,2.6-2.1,4.3c-1.8,1.8-2.4,2.1-4.3,2.1c-5.4,0-8.7-5.4-6.2-10.2C104.1,102,108.8,100.8,111.9,102.7z M151,102.6c2,1,3.2,3.3,3.2,5.9c0,3.9-2.9,6.7-7,6.7c-1.9,0-2.6-0.3-4.3-2.1c-1.8-1.8-2.1-2.4-2.1-4.4c0-2.6,1.3-5.1,3.3-6.2C145.8,101.6,149.1,101.6,151,102.6z M93.3,123c0.9,0.9,1.8,2.4,2.2,3.5c0.5,1.7,0.4,2.3-0.4,4c-1.2,2.4-4,4.5-6,4.5c-3.4,0-7-3.6-7-7c0-2.1,1.8-4.9,3.8-6C88.2,120.6,91.2,121.1,93.3,123z M131.2,122c2,1.1,3.8,3.9,3.8,6c0,3.3-3.6,7-7,7c-0.7,0-2.2-0.4-3.2-1c-2-1.1-3.8-3.9-3.8-6c0-3.3,3.6-7,7-7C128.7,121.1,130.2,121.5,131.2,122z M170.2,122c2,1.1,3.8,3.9,3.8,6c0,3.3-3.6,7-7,7c-3.4,0-7.3-4.8-6.6-8c0.4-1.9,2.6-4.7,4.2-5.4C166.4,120.8,168.3,121,170.2,122z M94,162.3l29.9,29.9l-1.8,1.9l-1.8,1.9l-30.1-30.1L60,135.8l1.7-1.8c1-1,1.8-1.8,2-1.8C64,132.3,77.5,145.8,94,162.3z M113.1,142.9c1.8,1.8,2.1,2.4,2.1,4.3c0,4.1-2.8,7-6.7,7c-4,0-6.7-2.7-6.7-6.8c0.1-3.9,2.8-6.6,6.9-6.6C110.7,140.9,111.3,141.2,113.1,142.9z M151,141.7c4.2,2.5,4.3,9.5,0,11.7c-4.8,2.5-10.2-0.7-10.2-6.2c0-1.9,0.3-2.6,2.1-4.3c1.8-1.8,2.4-2.1,4.3-2.1C148.5,140.9,150.1,141.2,151,141.7z M131.6,161.5c1.7,1.1,3.4,3.9,3.4,5.6c0,3.3-3.6,7-7,7c-2.1,0-4.9-1.8-6-3.8C118.7,164.3,125.9,157.8,131.6,161.5z"/><path fill="#000000" d="M169.8,169.9l-36,36l14.8,14.8c8.2,8.1,16.1,15.5,17.4,16.5c10,6.7,23.1,10,34.6,8.6c23.9-2.9,42-21,44.9-44.9c1.4-12.2-2.4-26.4-9.8-36.1c-1.3-1.8-8.7-9.4-16.3-17l-13.8-13.8L169.8,169.9z"/></g></g></g>
</svg>