<?xml version="1.0" encoding="UTF-8"?>
<svg width="54px" height="51px" viewBox="0 0 54 51" version="1.1" xmlns="http://www.w3.org/2000/svg" xmlns:xlink="http://www.w3.org/1999/xlink">
    <!-- Generator: Sketch 47 (45396) - http://www.bohemiancoding.com/sketch -->
    <title>schedule2</title>
    <desc>Created with Sketch.</desc>
    <defs></defs>
    <g id="Page-1" stroke="none" stroke-width="1" fill="none" fill-rule="evenodd">
        <g id="Confirmed-Paid" transform="translate(-165.000000, -743.000000)" fill-rule="nonzero" fill="#FFFFFF">
            <g id="schedule2" transform="translate(165.000000, 743.000000)">
                <path d="M22.3448276,47.3571429 C23.3732199,47.3571429 24.2068966,48.1726242 24.2068966,49.1785714 C24.2068966,50.1845187 23.3732199,51 22.3448276,51 L5.76310345,51 C2.56965517,51 0,48.4172143 0,45.2552143 L0,5.74478571 C0,2.58278571 2.56965517,0 5.76310345,0 L38.9265517,0 C42.12,0 44.6896552,2.58278571 44.6896552,5.74478571 L44.6896552,16.1305714 C44.6896552,17.1365187 43.8559785,17.952 42.8275862,17.952 C41.7991939,17.952 40.9655172,17.1365187 40.9655172,16.1305714 L40.9655172,5.74478571 C40.9655172,4.57178571 40.040069,3.64285714 38.9265517,3.64285714 L5.76310345,3.64285714 C4.64958621,3.64285714 3.72413793,4.57178571 3.72413793,5.74478571 L3.72413793,45.2552143 C3.72413793,46.4282143 4.64958621,47.3571429 5.76310345,47.3571429 L22.3448276,47.3571429 Z M39.1034483,51 C30.8763099,51 24.2068966,44.4761492 24.2068966,36.4285714 C24.2068966,28.3809936 30.8763099,21.8571429 39.1034483,21.8571429 C47.3305866,21.8571429 54,28.3809936 54,36.4285714 C54,44.4761492 47.3305866,51 39.1034483,51 Z M39.1034483,47.3571429 C43.0949673,47.3571429 46.7832831,45.274169 48.7790426,41.8928572 C50.7748022,38.5115454 50.7748022,34.3455974 48.7790426,30.9642856 C46.7832831,27.5829738 43.0949673,25.4999999 39.1034483,25.5 C32.9330945,25.5 27.9310345,30.3928881 27.9310345,36.4285714 C27.9310345,42.4642548 32.9330945,47.3571429 39.1034483,47.3571429 L39.1034483,47.3571429 Z M40.0344828,35.5178571 L44.658,35.5178571 C45.6863923,35.5178571 46.520069,36.3333385 46.520069,37.3392857 C46.520069,38.3452329 45.6863923,39.1607143 44.658,39.1607143 L38.1724138,39.1607143 C37.1440215,39.1607143 36.3103448,38.3452329 36.3103448,37.3392857 L36.3103448,31.875 C36.3103448,30.8690528 37.1440215,30.0535714 38.1724138,30.0535714 C39.2008061,30.0535714 40.0344828,30.8690528 40.0344828,31.875 L40.0344828,35.5178571 Z M13.0344828,16.3928571 C12.0060905,16.3928571 11.1724138,15.5773758 11.1724138,14.5714286 C11.1724138,13.5654813 12.0060905,12.75 13.0344828,12.75 L31.6551724,12.75 C32.6835647,12.75 33.5172414,13.5654813 33.5172414,14.5714286 C33.5172414,15.5773758 32.6835647,16.3928571 31.6551724,16.3928571 L13.0344828,16.3928571 Z M13.0344828,30.9642857 C12.0060905,30.9642857 11.1724138,30.1488044 11.1724138,29.1428571 C11.1724138,28.1369099 12.0060905,27.3214286 13.0344828,27.3214286 L16.7586207,27.3214286 C17.787013,27.3214286 18.6206897,28.1369099 18.6206897,29.1428571 C18.6206897,30.1488044 17.787013,30.9642857 16.7586207,30.9642857 L13.0344828,30.9642857 Z" id="Shape"></path>
            </g>
        </g>
    </g>
</svg>