<?xml version="1.0" encoding="UTF-8"?>
<svg width="41px" height="51px" viewBox="0 0 41 51" version="1.1" xmlns="http://www.w3.org/2000/svg" xmlns:xlink="http://www.w3.org/1999/xlink">
    <!-- Generator: Sketch 47 (45396) - http://www.bohemiancoding.com/sketch -->
    <title>user</title>
    <desc>Created with Sketch.</desc>
    <defs></defs>
    <g id="Page-1" stroke="none" stroke-width="1" fill="none" fill-rule="evenodd">
        <g id="Home" transform="translate(-307.000000, -747.000000)" fill-rule="nonzero" fill="#FFFFFF">
            <g id="user" transform="translate(307.000000, 747.000000)">
                <path d="M31,14.9999746 C31,6.71573792 25.8512891,0 19.5,0 C13.1487109,0 8,6.71573792 8,14.9999746 C8,23.2842621 13.1487109,30 19.5,30 C25.8512891,30 31,23.2842621 31,14.9999239 L31,14.9999746 Z M10.5555556,14.9999749 C10.5555556,8.22192226 14.8461463,2.72727273 20.1388889,2.72727273 C25.4316315,2.72727273 29.7222222,8.22197251 29.7222222,15.0000251 C29.7222222,21.7780777 25.4316315,27.2727273 20.1388889,27.2727273 C14.8461463,27.2727273 10.5555556,21.7780275 10.5555556,14.9999749 Z" id="Shape"></path>
                <path d="M0,49.7221946 L0,51 L41,51 L41,49.7221946 C41,38.2499276 31.5143457,28 20.5,28 C19.8372734,28 19.1783105,28.0332995 18.5244727,28.0995505 C17.9602422,28.1566567 19.4291953,28.7731443 19.475,29.4765585 C20.073584,29.4159237 19.8926475,30.5555611 20.5,30.5555611 C30.4420996,30.5555611 38.95,39.7489509 38.95,49.7222443 L39.975,48.4444389 L1.025,48.4444389 L2.05,49.7222443 C2.05,42.9364069 5.48591211,36.7331612 11.0213125,33.2786633 C11.5274863,32.9627655 11.7324063,32.1950883 11.478999,31.564088 C11.2255918,30.933038 10.609791,30.6775763 10.1036172,30.9935238 C3.9070918,34.8605376 0,41.9144607 0,49.7221946 Z" id="Shape"></path>
            </g>
        </g>
    </g>
</svg>